<svg width="28" height="37" viewBox="0 0 28 37" fill="none" xmlns="http://www.w3.org/2000/svg">
<path d="M27.25 11.5625H0.75C0.3375 11.5625 0 11.1723 0 10.6953V8.09375C0 6.17871 1.34375 4.625 3 4.625H6V0.867188C6 0.390234 6.3375 0 6.75 0H9.25C9.6625 0 10 0.390234 10 0.867188V4.625H18V0.867188C18 0.390234 18.3375 0 18.75 0H21.25C21.6625 0 22 0.390234 22 0.867188V4.625H25C26.6562 4.625 28 6.17871 28 8.09375V10.6953C28 11.1723 27.6625 11.5625 27.25 11.5625ZM0.75 13.875H27.25C27.6625 13.875 28 14.2652 28 14.7422V33.5312C28 35.4463 26.6562 37 25 37H3C1.34375 37 0 35.4463 0 33.5312V14.7422C0 14.2652 0.3375 13.875 0.75 13.875ZM19.75 27.75C20.1625 27.75 20.5 27.3598 20.5 26.8828V23.9922C20.5 23.5152 20.1625 23.125 19.75 23.125H8.25C7.8375 23.125 7.5 23.5152 7.5 23.9922V26.8828C7.5 27.3598 7.8375 27.75 8.25 27.75H19.75Z" fill="#5D55CF"/>
</svg>
