<svg width="28" height="32" viewBox="0 0 28 32" fill="none" xmlns="http://www.w3.org/2000/svg">
<path d="M13.913 16C18.3044 16 21.8634 12.4187 21.8634 8C21.8634 3.58125 18.3044 0 13.913 0C9.52174 0 5.96273 3.58125 5.96273 8C5.96273 12.4187 9.52174 16 13.913 16ZM19.4783 18H18.441C17.0621 18.6375 15.528 19 13.913 19C12.2981 19 10.7702 18.6375 9.3851 18H8.34783C3.73913 18 0 21.7625 0 26.4V29C0 30.6562 1.3354 32 2.98137 32H24.8447C26.4907 32 27.8261 30.6562 27.8261 29V26.4C27.8261 21.7625 24.087 18 19.4783 18Z" fill="#5D55CF"/>
</svg>
