<svg width="24" height="23" viewBox="0 0 24 23" fill="none" xmlns="http://www.w3.org/2000/svg">
<path d="M22.2857 9.03571H14.5714V1.64286C14.5714 0.735692 13.8038 0 12.8571 0H11.1429C10.1962 0 9.42857 0.735692 9.42857 1.64286V9.03571H1.71429C0.767679 9.03571 0 9.77141 0 10.6786V12.3214C0 13.2286 0.767679 13.9643 1.71429 13.9643H9.42857V21.3571C9.42857 22.2643 10.1962 23 11.1429 23H12.8571C13.8038 23 14.5714 22.2643 14.5714 21.3571V13.9643H22.2857C23.2323 13.9643 24 13.2286 24 12.3214V10.6786C24 9.77141 23.2323 9.03571 22.2857 9.03571Z" fill="#5D55CF"/>
</svg>
